<mxfile host="app.diagrams.net" modified="2021-10-08T12:13:56.342Z" agent="5.0 (Macintosh; Intel Mac OS X 10_15_7) AppleWebKit/537.36 (KHTML, like Gecko) Chrome/94.0.4606.71 Safari/537.36" etag="6kEh07p-g61QmESlrBDd" version="15.3.8" type="github">
  <diagram id="C5RBs43oDa-KdzZeNtuy" name="Page-1">
    <mxGraphModel dx="1666" dy="793" grid="1" gridSize="10" guides="1" tooltips="1" connect="1" arrows="1" fold="1" page="1" pageScale="1" pageWidth="827" pageHeight="1169" math="0" shadow="0">
      <root>
        <mxCell id="WIyWlLk6GJQsqaUBKTNV-0" />
        <mxCell id="WIyWlLk6GJQsqaUBKTNV-1" parent="WIyWlLk6GJQsqaUBKTNV-0" />
        <mxCell id="68sEGDZY214vlDvR09lp-0" value="Admin" style="shape=table;startSize=30;container=1;collapsible=0;childLayout=tableLayout;fixedRows=1;rowLines=0;fontStyle=1;align=center;pointerEvents=1;" vertex="1" parent="WIyWlLk6GJQsqaUBKTNV-1">
          <mxGeometry x="30" y="70" width="180" height="180" as="geometry" />
        </mxCell>
        <mxCell id="68sEGDZY214vlDvR09lp-1" value="" style="shape=partialRectangle;html=1;whiteSpace=wrap;collapsible=0;dropTarget=0;pointerEvents=1;fillColor=none;top=0;left=0;bottom=1;right=0;points=[[0,0.5],[1,0.5]];portConstraint=eastwest;" vertex="1" parent="68sEGDZY214vlDvR09lp-0">
          <mxGeometry y="30" width="180" height="30" as="geometry" />
        </mxCell>
        <mxCell id="68sEGDZY214vlDvR09lp-2" value="1" style="shape=partialRectangle;html=1;whiteSpace=wrap;connectable=0;fillColor=none;top=0;left=0;bottom=0;right=0;overflow=hidden;pointerEvents=1;" vertex="1" parent="68sEGDZY214vlDvR09lp-1">
          <mxGeometry width="40" height="30" as="geometry">
            <mxRectangle width="40" height="30" as="alternateBounds" />
          </mxGeometry>
        </mxCell>
        <object label="id(integer)" integer="" id="68sEGDZY214vlDvR09lp-3">
          <mxCell style="shape=partialRectangle;html=1;whiteSpace=wrap;connectable=0;fillColor=none;top=0;left=0;bottom=0;right=0;align=left;spacingLeft=6;overflow=hidden;pointerEvents=1;" vertex="1" parent="68sEGDZY214vlDvR09lp-1">
            <mxGeometry x="40" width="140" height="30" as="geometry">
              <mxRectangle width="140" height="30" as="alternateBounds" />
            </mxGeometry>
          </mxCell>
        </object>
        <mxCell id="68sEGDZY214vlDvR09lp-4" value="" style="shape=partialRectangle;html=1;whiteSpace=wrap;collapsible=0;dropTarget=0;pointerEvents=1;fillColor=none;top=0;left=0;bottom=0;right=0;points=[[0,0.5],[1,0.5]];portConstraint=eastwest;" vertex="1" parent="68sEGDZY214vlDvR09lp-0">
          <mxGeometry y="60" width="180" height="30" as="geometry" />
        </mxCell>
        <mxCell id="68sEGDZY214vlDvR09lp-5" value="2" style="shape=partialRectangle;html=1;whiteSpace=wrap;connectable=0;fillColor=none;top=0;left=0;bottom=0;right=0;overflow=hidden;pointerEvents=1;" vertex="1" parent="68sEGDZY214vlDvR09lp-4">
          <mxGeometry width="40" height="30" as="geometry">
            <mxRectangle width="40" height="30" as="alternateBounds" />
          </mxGeometry>
        </mxCell>
        <mxCell id="68sEGDZY214vlDvR09lp-6" value="name(string)" style="shape=partialRectangle;html=1;whiteSpace=wrap;connectable=0;fillColor=none;top=0;left=0;bottom=0;right=0;align=left;spacingLeft=6;overflow=hidden;pointerEvents=1;" vertex="1" parent="68sEGDZY214vlDvR09lp-4">
          <mxGeometry x="40" width="140" height="30" as="geometry">
            <mxRectangle width="140" height="30" as="alternateBounds" />
          </mxGeometry>
        </mxCell>
        <mxCell id="68sEGDZY214vlDvR09lp-7" value="" style="shape=partialRectangle;html=1;whiteSpace=wrap;collapsible=0;dropTarget=0;pointerEvents=1;fillColor=none;top=0;left=0;bottom=0;right=0;points=[[0,0.5],[1,0.5]];portConstraint=eastwest;" vertex="1" parent="68sEGDZY214vlDvR09lp-0">
          <mxGeometry y="90" width="180" height="30" as="geometry" />
        </mxCell>
        <mxCell id="68sEGDZY214vlDvR09lp-8" value="3" style="shape=partialRectangle;html=1;whiteSpace=wrap;connectable=0;fillColor=none;top=0;left=0;bottom=0;right=0;overflow=hidden;pointerEvents=1;" vertex="1" parent="68sEGDZY214vlDvR09lp-7">
          <mxGeometry width="40" height="30" as="geometry">
            <mxRectangle width="40" height="30" as="alternateBounds" />
          </mxGeometry>
        </mxCell>
        <mxCell id="68sEGDZY214vlDvR09lp-9" value="email(string)" style="shape=partialRectangle;html=1;whiteSpace=wrap;connectable=0;fillColor=none;top=0;left=0;bottom=0;right=0;align=left;spacingLeft=6;overflow=hidden;pointerEvents=1;" vertex="1" parent="68sEGDZY214vlDvR09lp-7">
          <mxGeometry x="40" width="140" height="30" as="geometry">
            <mxRectangle width="140" height="30" as="alternateBounds" />
          </mxGeometry>
        </mxCell>
        <mxCell id="68sEGDZY214vlDvR09lp-10" value="" style="shape=partialRectangle;html=1;whiteSpace=wrap;collapsible=0;dropTarget=0;pointerEvents=1;fillColor=none;top=0;left=0;bottom=0;right=0;points=[[0,0.5],[1,0.5]];portConstraint=eastwest;" vertex="1" parent="68sEGDZY214vlDvR09lp-0">
          <mxGeometry y="120" width="180" height="30" as="geometry" />
        </mxCell>
        <mxCell id="68sEGDZY214vlDvR09lp-11" value="4" style="shape=partialRectangle;html=1;whiteSpace=wrap;connectable=0;fillColor=none;top=0;left=0;bottom=0;right=0;overflow=hidden;pointerEvents=1;" vertex="1" parent="68sEGDZY214vlDvR09lp-10">
          <mxGeometry width="40" height="30" as="geometry">
            <mxRectangle width="40" height="30" as="alternateBounds" />
          </mxGeometry>
        </mxCell>
        <mxCell id="68sEGDZY214vlDvR09lp-12" value="password(string)" style="shape=partialRectangle;html=1;whiteSpace=wrap;connectable=0;fillColor=none;top=0;left=0;bottom=0;right=0;align=left;spacingLeft=6;overflow=hidden;pointerEvents=1;" vertex="1" parent="68sEGDZY214vlDvR09lp-10">
          <mxGeometry x="40" width="140" height="30" as="geometry">
            <mxRectangle width="140" height="30" as="alternateBounds" />
          </mxGeometry>
        </mxCell>
        <mxCell id="68sEGDZY214vlDvR09lp-13" value="User" style="shape=table;startSize=30;container=1;collapsible=0;childLayout=tableLayout;fixedRows=1;rowLines=0;fontStyle=1;align=center;pointerEvents=1;" vertex="1" parent="WIyWlLk6GJQsqaUBKTNV-1">
          <mxGeometry x="380" y="80" width="164" height="270" as="geometry" />
        </mxCell>
        <mxCell id="68sEGDZY214vlDvR09lp-14" value="" style="shape=partialRectangle;html=1;whiteSpace=wrap;collapsible=0;dropTarget=0;pointerEvents=1;fillColor=none;top=0;left=0;bottom=1;right=0;points=[[0,0.5],[1,0.5]];portConstraint=eastwest;" vertex="1" parent="68sEGDZY214vlDvR09lp-13">
          <mxGeometry y="30" width="164" height="30" as="geometry" />
        </mxCell>
        <mxCell id="68sEGDZY214vlDvR09lp-15" value="1" style="shape=partialRectangle;html=1;whiteSpace=wrap;connectable=0;fillColor=none;top=0;left=0;bottom=0;right=0;overflow=hidden;pointerEvents=1;" vertex="1" parent="68sEGDZY214vlDvR09lp-14">
          <mxGeometry width="37" height="30" as="geometry">
            <mxRectangle width="37" height="30" as="alternateBounds" />
          </mxGeometry>
        </mxCell>
        <mxCell id="68sEGDZY214vlDvR09lp-16" value="id(integer)" style="shape=partialRectangle;html=1;whiteSpace=wrap;connectable=0;fillColor=none;top=0;left=0;bottom=0;right=0;align=left;spacingLeft=6;overflow=hidden;pointerEvents=1;" vertex="1" parent="68sEGDZY214vlDvR09lp-14">
          <mxGeometry x="37" width="127" height="30" as="geometry">
            <mxRectangle width="127" height="30" as="alternateBounds" />
          </mxGeometry>
        </mxCell>
        <mxCell id="68sEGDZY214vlDvR09lp-17" value="" style="shape=partialRectangle;html=1;whiteSpace=wrap;collapsible=0;dropTarget=0;pointerEvents=1;fillColor=none;top=0;left=0;bottom=0;right=0;points=[[0,0.5],[1,0.5]];portConstraint=eastwest;" vertex="1" parent="68sEGDZY214vlDvR09lp-13">
          <mxGeometry y="60" width="164" height="30" as="geometry" />
        </mxCell>
        <mxCell id="68sEGDZY214vlDvR09lp-18" value="2" style="shape=partialRectangle;html=1;whiteSpace=wrap;connectable=0;fillColor=none;top=0;left=0;bottom=0;right=0;overflow=hidden;pointerEvents=1;" vertex="1" parent="68sEGDZY214vlDvR09lp-17">
          <mxGeometry width="37" height="30" as="geometry">
            <mxRectangle width="37" height="30" as="alternateBounds" />
          </mxGeometry>
        </mxCell>
        <mxCell id="68sEGDZY214vlDvR09lp-19" value="name(string)" style="shape=partialRectangle;html=1;whiteSpace=wrap;connectable=0;fillColor=none;top=0;left=0;bottom=0;right=0;align=left;spacingLeft=6;overflow=hidden;pointerEvents=1;" vertex="1" parent="68sEGDZY214vlDvR09lp-17">
          <mxGeometry x="37" width="127" height="30" as="geometry">
            <mxRectangle width="127" height="30" as="alternateBounds" />
          </mxGeometry>
        </mxCell>
        <mxCell id="68sEGDZY214vlDvR09lp-20" value="" style="shape=partialRectangle;html=1;whiteSpace=wrap;collapsible=0;dropTarget=0;pointerEvents=1;fillColor=none;top=0;left=0;bottom=0;right=0;points=[[0,0.5],[1,0.5]];portConstraint=eastwest;" vertex="1" parent="68sEGDZY214vlDvR09lp-13">
          <mxGeometry y="90" width="164" height="30" as="geometry" />
        </mxCell>
        <mxCell id="68sEGDZY214vlDvR09lp-21" value="3" style="shape=partialRectangle;html=1;whiteSpace=wrap;connectable=0;fillColor=none;top=0;left=0;bottom=0;right=0;overflow=hidden;pointerEvents=1;" vertex="1" parent="68sEGDZY214vlDvR09lp-20">
          <mxGeometry width="37" height="30" as="geometry">
            <mxRectangle width="37" height="30" as="alternateBounds" />
          </mxGeometry>
        </mxCell>
        <mxCell id="68sEGDZY214vlDvR09lp-22" value="line_name(string)" style="shape=partialRectangle;html=1;whiteSpace=wrap;connectable=0;fillColor=none;top=0;left=0;bottom=0;right=0;align=left;spacingLeft=6;overflow=hidden;pointerEvents=1;" vertex="1" parent="68sEGDZY214vlDvR09lp-20">
          <mxGeometry x="37" width="127" height="30" as="geometry">
            <mxRectangle width="127" height="30" as="alternateBounds" />
          </mxGeometry>
        </mxCell>
        <mxCell id="68sEGDZY214vlDvR09lp-23" value="" style="shape=partialRectangle;html=1;whiteSpace=wrap;collapsible=0;dropTarget=0;pointerEvents=1;fillColor=none;top=0;left=0;bottom=0;right=0;points=[[0,0.5],[1,0.5]];portConstraint=eastwest;" vertex="1" parent="68sEGDZY214vlDvR09lp-13">
          <mxGeometry y="120" width="164" height="30" as="geometry" />
        </mxCell>
        <mxCell id="68sEGDZY214vlDvR09lp-24" value="4" style="shape=partialRectangle;html=1;whiteSpace=wrap;connectable=0;fillColor=none;top=0;left=0;bottom=0;right=0;overflow=hidden;pointerEvents=1;" vertex="1" parent="68sEGDZY214vlDvR09lp-23">
          <mxGeometry width="37" height="30" as="geometry">
            <mxRectangle width="37" height="30" as="alternateBounds" />
          </mxGeometry>
        </mxCell>
        <mxCell id="68sEGDZY214vlDvR09lp-25" value="nick_name(string)" style="shape=partialRectangle;html=1;whiteSpace=wrap;connectable=0;fillColor=none;top=0;left=0;bottom=0;right=0;align=left;spacingLeft=6;overflow=hidden;pointerEvents=1;" vertex="1" parent="68sEGDZY214vlDvR09lp-23">
          <mxGeometry x="37" width="127" height="30" as="geometry">
            <mxRectangle width="127" height="30" as="alternateBounds" />
          </mxGeometry>
        </mxCell>
        <mxCell id="68sEGDZY214vlDvR09lp-26" value="" style="shape=partialRectangle;html=1;whiteSpace=wrap;collapsible=0;dropTarget=0;pointerEvents=1;fillColor=none;top=0;left=0;bottom=0;right=0;points=[[0,0.5],[1,0.5]];portConstraint=eastwest;" vertex="1" parent="68sEGDZY214vlDvR09lp-13">
          <mxGeometry y="150" width="164" height="30" as="geometry" />
        </mxCell>
        <mxCell id="68sEGDZY214vlDvR09lp-27" value="5" style="shape=partialRectangle;html=1;whiteSpace=wrap;connectable=0;fillColor=none;top=0;left=0;bottom=0;right=0;overflow=hidden;pointerEvents=1;" vertex="1" parent="68sEGDZY214vlDvR09lp-26">
          <mxGeometry width="37" height="30" as="geometry">
            <mxRectangle width="37" height="30" as="alternateBounds" />
          </mxGeometry>
        </mxCell>
        <mxCell id="68sEGDZY214vlDvR09lp-28" value="email(string)" style="shape=partialRectangle;html=1;whiteSpace=wrap;connectable=0;fillColor=none;top=0;left=0;bottom=0;right=0;align=left;spacingLeft=6;overflow=hidden;pointerEvents=1;" vertex="1" parent="68sEGDZY214vlDvR09lp-26">
          <mxGeometry x="37" width="127" height="30" as="geometry">
            <mxRectangle width="127" height="30" as="alternateBounds" />
          </mxGeometry>
        </mxCell>
        <mxCell id="68sEGDZY214vlDvR09lp-29" value="" style="shape=partialRectangle;html=1;whiteSpace=wrap;collapsible=0;dropTarget=0;pointerEvents=1;fillColor=none;top=0;left=0;bottom=0;right=0;points=[[0,0.5],[1,0.5]];portConstraint=eastwest;" vertex="1" parent="68sEGDZY214vlDvR09lp-13">
          <mxGeometry y="180" width="164" height="30" as="geometry" />
        </mxCell>
        <mxCell id="68sEGDZY214vlDvR09lp-30" value="6" style="shape=partialRectangle;html=1;whiteSpace=wrap;connectable=0;fillColor=none;top=0;left=0;bottom=0;right=0;overflow=hidden;pointerEvents=1;" vertex="1" parent="68sEGDZY214vlDvR09lp-29">
          <mxGeometry width="37" height="30" as="geometry">
            <mxRectangle width="37" height="30" as="alternateBounds" />
          </mxGeometry>
        </mxCell>
        <mxCell id="68sEGDZY214vlDvR09lp-31" value="password(string)" style="shape=partialRectangle;html=1;whiteSpace=wrap;connectable=0;fillColor=none;top=0;left=0;bottom=0;right=0;align=left;spacingLeft=6;overflow=hidden;pointerEvents=1;" vertex="1" parent="68sEGDZY214vlDvR09lp-29">
          <mxGeometry x="37" width="127" height="30" as="geometry">
            <mxRectangle width="127" height="30" as="alternateBounds" />
          </mxGeometry>
        </mxCell>
        <mxCell id="68sEGDZY214vlDvR09lp-32" value="" style="shape=partialRectangle;html=1;whiteSpace=wrap;collapsible=0;dropTarget=0;pointerEvents=1;fillColor=none;top=0;left=0;bottom=0;right=0;points=[[0,0.5],[1,0.5]];portConstraint=eastwest;" vertex="1" parent="68sEGDZY214vlDvR09lp-13">
          <mxGeometry y="210" width="164" height="30" as="geometry" />
        </mxCell>
        <mxCell id="68sEGDZY214vlDvR09lp-33" value="7" style="shape=partialRectangle;html=1;whiteSpace=wrap;connectable=0;fillColor=none;top=0;left=0;bottom=0;right=0;overflow=hidden;pointerEvents=1;" vertex="1" parent="68sEGDZY214vlDvR09lp-32">
          <mxGeometry width="37" height="30" as="geometry">
            <mxRectangle width="37" height="30" as="alternateBounds" />
          </mxGeometry>
        </mxCell>
        <mxCell id="68sEGDZY214vlDvR09lp-34" value="provider(string)" style="shape=partialRectangle;html=1;whiteSpace=wrap;connectable=0;fillColor=none;top=0;left=0;bottom=0;right=0;align=left;spacingLeft=6;overflow=hidden;pointerEvents=1;" vertex="1" parent="68sEGDZY214vlDvR09lp-32">
          <mxGeometry x="37" width="127" height="30" as="geometry">
            <mxRectangle width="127" height="30" as="alternateBounds" />
          </mxGeometry>
        </mxCell>
        <mxCell id="68sEGDZY214vlDvR09lp-35" value="" style="shape=partialRectangle;html=1;whiteSpace=wrap;collapsible=0;dropTarget=0;pointerEvents=1;fillColor=none;top=0;left=0;bottom=0;right=0;points=[[0,0.5],[1,0.5]];portConstraint=eastwest;" vertex="1" parent="68sEGDZY214vlDvR09lp-13">
          <mxGeometry y="240" width="164" height="30" as="geometry" />
        </mxCell>
        <mxCell id="68sEGDZY214vlDvR09lp-36" value="8" style="shape=partialRectangle;html=1;whiteSpace=wrap;connectable=0;fillColor=none;top=0;left=0;bottom=0;right=0;overflow=hidden;pointerEvents=1;" vertex="1" parent="68sEGDZY214vlDvR09lp-35">
          <mxGeometry width="37" height="30" as="geometry">
            <mxRectangle width="37" height="30" as="alternateBounds" />
          </mxGeometry>
        </mxCell>
        <mxCell id="68sEGDZY214vlDvR09lp-37" value="uid(string)" style="shape=partialRectangle;html=1;whiteSpace=wrap;connectable=0;fillColor=none;top=0;left=0;bottom=0;right=0;align=left;spacingLeft=6;overflow=hidden;pointerEvents=1;" vertex="1" parent="68sEGDZY214vlDvR09lp-35">
          <mxGeometry x="37" width="127" height="30" as="geometry">
            <mxRectangle width="127" height="30" as="alternateBounds" />
          </mxGeometry>
        </mxCell>
        <mxCell id="68sEGDZY214vlDvR09lp-38" value="Post" style="shape=table;startSize=30;container=1;collapsible=0;childLayout=tableLayout;fixedRows=1;rowLines=0;fontStyle=1;align=center;pointerEvents=1;" vertex="1" parent="WIyWlLk6GJQsqaUBKTNV-1">
          <mxGeometry x="60" y="460" width="220" height="210" as="geometry" />
        </mxCell>
        <mxCell id="68sEGDZY214vlDvR09lp-39" value="" style="shape=partialRectangle;html=1;whiteSpace=wrap;collapsible=0;dropTarget=0;pointerEvents=1;fillColor=none;top=0;left=0;bottom=1;right=0;points=[[0,0.5],[1,0.5]];portConstraint=eastwest;" vertex="1" parent="68sEGDZY214vlDvR09lp-38">
          <mxGeometry y="30" width="220" height="30" as="geometry" />
        </mxCell>
        <mxCell id="68sEGDZY214vlDvR09lp-40" value="1" style="shape=partialRectangle;html=1;whiteSpace=wrap;connectable=0;fillColor=none;top=0;left=0;bottom=0;right=0;overflow=hidden;pointerEvents=1;" vertex="1" parent="68sEGDZY214vlDvR09lp-39">
          <mxGeometry width="40" height="30" as="geometry">
            <mxRectangle width="40" height="30" as="alternateBounds" />
          </mxGeometry>
        </mxCell>
        <mxCell id="68sEGDZY214vlDvR09lp-41" value="id(integer:PK)" style="shape=partialRectangle;html=1;whiteSpace=wrap;connectable=0;fillColor=none;top=0;left=0;bottom=0;right=0;align=left;spacingLeft=6;overflow=hidden;pointerEvents=1;" vertex="1" parent="68sEGDZY214vlDvR09lp-39">
          <mxGeometry x="40" width="180" height="30" as="geometry">
            <mxRectangle width="180" height="30" as="alternateBounds" />
          </mxGeometry>
        </mxCell>
        <mxCell id="68sEGDZY214vlDvR09lp-48" value="" style="shape=partialRectangle;html=1;whiteSpace=wrap;collapsible=0;dropTarget=0;pointerEvents=1;fillColor=none;top=0;left=0;bottom=1;right=0;points=[[0,0.5],[1,0.5]];portConstraint=eastwest;" vertex="1" parent="68sEGDZY214vlDvR09lp-38">
          <mxGeometry y="60" width="220" height="30" as="geometry" />
        </mxCell>
        <mxCell id="68sEGDZY214vlDvR09lp-49" value="1" style="shape=partialRectangle;html=1;whiteSpace=wrap;connectable=0;fillColor=none;top=0;left=0;bottom=0;right=0;overflow=hidden;pointerEvents=1;" vertex="1" parent="68sEGDZY214vlDvR09lp-48">
          <mxGeometry width="40" height="30" as="geometry">
            <mxRectangle width="40" height="30" as="alternateBounds" />
          </mxGeometry>
        </mxCell>
        <mxCell id="68sEGDZY214vlDvR09lp-50" value="country_id(integer:FK)" style="shape=partialRectangle;html=1;whiteSpace=wrap;connectable=0;fillColor=none;top=0;left=0;bottom=0;right=0;align=left;spacingLeft=6;overflow=hidden;pointerEvents=1;" vertex="1" parent="68sEGDZY214vlDvR09lp-48">
          <mxGeometry x="40" width="180" height="30" as="geometry">
            <mxRectangle width="180" height="30" as="alternateBounds" />
          </mxGeometry>
        </mxCell>
        <mxCell id="68sEGDZY214vlDvR09lp-51" value="" style="shape=partialRectangle;html=1;whiteSpace=wrap;collapsible=0;dropTarget=0;pointerEvents=1;fillColor=none;top=0;left=0;bottom=1;right=0;points=[[0,0.5],[1,0.5]];portConstraint=eastwest;" vertex="1" parent="68sEGDZY214vlDvR09lp-38">
          <mxGeometry y="90" width="220" height="30" as="geometry" />
        </mxCell>
        <mxCell id="68sEGDZY214vlDvR09lp-52" value="1" style="shape=partialRectangle;html=1;whiteSpace=wrap;connectable=0;fillColor=none;top=0;left=0;bottom=0;right=0;overflow=hidden;pointerEvents=1;" vertex="1" parent="68sEGDZY214vlDvR09lp-51">
          <mxGeometry width="40" height="30" as="geometry">
            <mxRectangle width="40" height="30" as="alternateBounds" />
          </mxGeometry>
        </mxCell>
        <mxCell id="68sEGDZY214vlDvR09lp-53" value="post_genre_id(integer:FK)" style="shape=partialRectangle;html=1;whiteSpace=wrap;connectable=0;fillColor=none;top=0;left=0;bottom=0;right=0;align=left;spacingLeft=6;overflow=hidden;pointerEvents=1;" vertex="1" parent="68sEGDZY214vlDvR09lp-51">
          <mxGeometry x="40" width="180" height="30" as="geometry">
            <mxRectangle width="180" height="30" as="alternateBounds" />
          </mxGeometry>
        </mxCell>
        <mxCell id="68sEGDZY214vlDvR09lp-42" value="" style="shape=partialRectangle;html=1;whiteSpace=wrap;collapsible=0;dropTarget=0;pointerEvents=1;fillColor=none;top=0;left=0;bottom=0;right=0;points=[[0,0.5],[1,0.5]];portConstraint=eastwest;" vertex="1" parent="68sEGDZY214vlDvR09lp-38">
          <mxGeometry y="120" width="220" height="30" as="geometry" />
        </mxCell>
        <mxCell id="68sEGDZY214vlDvR09lp-43" value="2" style="shape=partialRectangle;html=1;whiteSpace=wrap;connectable=0;fillColor=none;top=0;left=0;bottom=0;right=0;overflow=hidden;pointerEvents=1;" vertex="1" parent="68sEGDZY214vlDvR09lp-42">
          <mxGeometry width="40" height="30" as="geometry">
            <mxRectangle width="40" height="30" as="alternateBounds" />
          </mxGeometry>
        </mxCell>
        <mxCell id="68sEGDZY214vlDvR09lp-44" value="title(string)" style="shape=partialRectangle;html=1;whiteSpace=wrap;connectable=0;fillColor=none;top=0;left=0;bottom=0;right=0;align=left;spacingLeft=6;overflow=hidden;pointerEvents=1;" vertex="1" parent="68sEGDZY214vlDvR09lp-42">
          <mxGeometry x="40" width="180" height="30" as="geometry">
            <mxRectangle width="180" height="30" as="alternateBounds" />
          </mxGeometry>
        </mxCell>
        <mxCell id="68sEGDZY214vlDvR09lp-45" value="" style="shape=partialRectangle;html=1;whiteSpace=wrap;collapsible=0;dropTarget=0;pointerEvents=1;fillColor=none;top=0;left=0;bottom=0;right=0;points=[[0,0.5],[1,0.5]];portConstraint=eastwest;" vertex="1" parent="68sEGDZY214vlDvR09lp-38">
          <mxGeometry y="150" width="220" height="30" as="geometry" />
        </mxCell>
        <mxCell id="68sEGDZY214vlDvR09lp-46" value="3" style="shape=partialRectangle;html=1;whiteSpace=wrap;connectable=0;fillColor=none;top=0;left=0;bottom=0;right=0;overflow=hidden;pointerEvents=1;" vertex="1" parent="68sEGDZY214vlDvR09lp-45">
          <mxGeometry width="40" height="30" as="geometry">
            <mxRectangle width="40" height="30" as="alternateBounds" />
          </mxGeometry>
        </mxCell>
        <mxCell id="68sEGDZY214vlDvR09lp-47" value="content(string)" style="shape=partialRectangle;html=1;whiteSpace=wrap;connectable=0;fillColor=none;top=0;left=0;bottom=0;right=0;align=left;spacingLeft=6;overflow=hidden;pointerEvents=1;" vertex="1" parent="68sEGDZY214vlDvR09lp-45">
          <mxGeometry x="40" width="180" height="30" as="geometry">
            <mxRectangle width="180" height="30" as="alternateBounds" />
          </mxGeometry>
        </mxCell>
        <mxCell id="68sEGDZY214vlDvR09lp-57" value="" style="endArrow=none;html=1;edgeStyle=orthogonalEdgeStyle;exitX=0;exitY=0;exitDx=0;exitDy=0;entryX=1;entryY=0;entryDx=0;entryDy=0;" edge="1" parent="WIyWlLk6GJQsqaUBKTNV-1" source="68sEGDZY214vlDvR09lp-13" target="68sEGDZY214vlDvR09lp-38">
          <mxGeometry relative="1" as="geometry">
            <mxPoint x="180" y="380" as="sourcePoint" />
            <mxPoint x="340" y="380" as="targetPoint" />
            <Array as="points">
              <mxPoint x="470" y="80" />
              <mxPoint x="470" y="70" />
              <mxPoint x="280" y="70" />
            </Array>
          </mxGeometry>
        </mxCell>
        <mxCell id="68sEGDZY214vlDvR09lp-58" value="parent" style="edgeLabel;resizable=0;html=1;align=left;verticalAlign=bottom;" connectable="0" vertex="1" parent="68sEGDZY214vlDvR09lp-57">
          <mxGeometry x="-1" relative="1" as="geometry" />
        </mxCell>
        <mxCell id="68sEGDZY214vlDvR09lp-59" value="child" style="edgeLabel;resizable=0;html=1;align=right;verticalAlign=bottom;" connectable="0" vertex="1" parent="68sEGDZY214vlDvR09lp-57">
          <mxGeometry x="1" relative="1" as="geometry" />
        </mxCell>
        <mxCell id="68sEGDZY214vlDvR09lp-70" value="Country" style="shape=table;startSize=30;container=1;collapsible=0;childLayout=tableLayout;fixedRows=1;rowLines=0;fontStyle=1;align=center;pointerEvents=1;" vertex="1" parent="WIyWlLk6GJQsqaUBKTNV-1">
          <mxGeometry x="600" y="360" width="180" height="150" as="geometry" />
        </mxCell>
        <mxCell id="68sEGDZY214vlDvR09lp-71" value="" style="shape=partialRectangle;html=1;whiteSpace=wrap;collapsible=0;dropTarget=0;pointerEvents=1;fillColor=none;top=0;left=0;bottom=1;right=0;points=[[0,0.5],[1,0.5]];portConstraint=eastwest;" vertex="1" parent="68sEGDZY214vlDvR09lp-70">
          <mxGeometry y="30" width="180" height="30" as="geometry" />
        </mxCell>
        <mxCell id="68sEGDZY214vlDvR09lp-72" value="1" style="shape=partialRectangle;html=1;whiteSpace=wrap;connectable=0;fillColor=none;top=0;left=0;bottom=0;right=0;overflow=hidden;pointerEvents=1;" vertex="1" parent="68sEGDZY214vlDvR09lp-71">
          <mxGeometry width="40" height="30" as="geometry">
            <mxRectangle width="40" height="30" as="alternateBounds" />
          </mxGeometry>
        </mxCell>
        <mxCell id="68sEGDZY214vlDvR09lp-73" value="id(string)" style="shape=partialRectangle;html=1;whiteSpace=wrap;connectable=0;fillColor=none;top=0;left=0;bottom=0;right=0;align=left;spacingLeft=6;overflow=hidden;pointerEvents=1;" vertex="1" parent="68sEGDZY214vlDvR09lp-71">
          <mxGeometry x="40" width="140" height="30" as="geometry">
            <mxRectangle width="140" height="30" as="alternateBounds" />
          </mxGeometry>
        </mxCell>
        <mxCell id="68sEGDZY214vlDvR09lp-74" value="" style="shape=partialRectangle;html=1;whiteSpace=wrap;collapsible=0;dropTarget=0;pointerEvents=1;fillColor=none;top=0;left=0;bottom=0;right=0;points=[[0,0.5],[1,0.5]];portConstraint=eastwest;" vertex="1" parent="68sEGDZY214vlDvR09lp-70">
          <mxGeometry y="60" width="180" height="30" as="geometry" />
        </mxCell>
        <mxCell id="68sEGDZY214vlDvR09lp-75" value="2" style="shape=partialRectangle;html=1;whiteSpace=wrap;connectable=0;fillColor=none;top=0;left=0;bottom=0;right=0;overflow=hidden;pointerEvents=1;" vertex="1" parent="68sEGDZY214vlDvR09lp-74">
          <mxGeometry width="40" height="30" as="geometry">
            <mxRectangle width="40" height="30" as="alternateBounds" />
          </mxGeometry>
        </mxCell>
        <mxCell id="68sEGDZY214vlDvR09lp-76" value="name(string)" style="shape=partialRectangle;html=1;whiteSpace=wrap;connectable=0;fillColor=none;top=0;left=0;bottom=0;right=0;align=left;spacingLeft=6;overflow=hidden;pointerEvents=1;" vertex="1" parent="68sEGDZY214vlDvR09lp-74">
          <mxGeometry x="40" width="140" height="30" as="geometry">
            <mxRectangle width="140" height="30" as="alternateBounds" />
          </mxGeometry>
        </mxCell>
        <mxCell id="68sEGDZY214vlDvR09lp-80" value="PostGenre" style="shape=table;startSize=30;container=1;collapsible=0;childLayout=tableLayout;fixedRows=1;rowLines=0;fontStyle=1;align=center;pointerEvents=1;" vertex="1" parent="WIyWlLk6GJQsqaUBKTNV-1">
          <mxGeometry x="600" y="550" width="180" height="150" as="geometry" />
        </mxCell>
        <mxCell id="68sEGDZY214vlDvR09lp-81" value="" style="shape=partialRectangle;html=1;whiteSpace=wrap;collapsible=0;dropTarget=0;pointerEvents=1;fillColor=none;top=0;left=0;bottom=1;right=0;points=[[0,0.5],[1,0.5]];portConstraint=eastwest;" vertex="1" parent="68sEGDZY214vlDvR09lp-80">
          <mxGeometry y="30" width="180" height="30" as="geometry" />
        </mxCell>
        <mxCell id="68sEGDZY214vlDvR09lp-82" value="1" style="shape=partialRectangle;html=1;whiteSpace=wrap;connectable=0;fillColor=none;top=0;left=0;bottom=0;right=0;overflow=hidden;pointerEvents=1;" vertex="1" parent="68sEGDZY214vlDvR09lp-81">
          <mxGeometry width="40" height="30" as="geometry">
            <mxRectangle width="40" height="30" as="alternateBounds" />
          </mxGeometry>
        </mxCell>
        <mxCell id="68sEGDZY214vlDvR09lp-83" value="id(string)" style="shape=partialRectangle;html=1;whiteSpace=wrap;connectable=0;fillColor=none;top=0;left=0;bottom=0;right=0;align=left;spacingLeft=6;overflow=hidden;pointerEvents=1;" vertex="1" parent="68sEGDZY214vlDvR09lp-81">
          <mxGeometry x="40" width="140" height="30" as="geometry">
            <mxRectangle width="140" height="30" as="alternateBounds" />
          </mxGeometry>
        </mxCell>
        <mxCell id="68sEGDZY214vlDvR09lp-84" value="" style="shape=partialRectangle;html=1;whiteSpace=wrap;collapsible=0;dropTarget=0;pointerEvents=1;fillColor=none;top=0;left=0;bottom=0;right=0;points=[[0,0.5],[1,0.5]];portConstraint=eastwest;" vertex="1" parent="68sEGDZY214vlDvR09lp-80">
          <mxGeometry y="60" width="180" height="30" as="geometry" />
        </mxCell>
        <mxCell id="68sEGDZY214vlDvR09lp-85" value="2" style="shape=partialRectangle;html=1;whiteSpace=wrap;connectable=0;fillColor=none;top=0;left=0;bottom=0;right=0;overflow=hidden;pointerEvents=1;" vertex="1" parent="68sEGDZY214vlDvR09lp-84">
          <mxGeometry width="40" height="30" as="geometry">
            <mxRectangle width="40" height="30" as="alternateBounds" />
          </mxGeometry>
        </mxCell>
        <mxCell id="68sEGDZY214vlDvR09lp-86" value="name(string)" style="shape=partialRectangle;html=1;whiteSpace=wrap;connectable=0;fillColor=none;top=0;left=0;bottom=0;right=0;align=left;spacingLeft=6;overflow=hidden;pointerEvents=1;" vertex="1" parent="68sEGDZY214vlDvR09lp-84">
          <mxGeometry x="40" width="140" height="30" as="geometry">
            <mxRectangle width="140" height="30" as="alternateBounds" />
          </mxGeometry>
        </mxCell>
        <mxCell id="68sEGDZY214vlDvR09lp-87" value="" style="endArrow=none;html=1;edgeStyle=orthogonalEdgeStyle;exitX=0;exitY=0.5;exitDx=0;exitDy=0;entryX=1;entryY=0.5;entryDx=0;entryDy=0;" edge="1" parent="WIyWlLk6GJQsqaUBKTNV-1" source="68sEGDZY214vlDvR09lp-71" target="68sEGDZY214vlDvR09lp-48">
          <mxGeometry relative="1" as="geometry">
            <mxPoint x="320" y="490" as="sourcePoint" />
            <mxPoint x="480" y="490" as="targetPoint" />
          </mxGeometry>
        </mxCell>
        <mxCell id="68sEGDZY214vlDvR09lp-88" value="parent" style="edgeLabel;resizable=0;html=1;align=left;verticalAlign=bottom;" connectable="0" vertex="1" parent="68sEGDZY214vlDvR09lp-87">
          <mxGeometry x="-1" relative="1" as="geometry" />
        </mxCell>
        <mxCell id="68sEGDZY214vlDvR09lp-89" value="child" style="edgeLabel;resizable=0;html=1;align=right;verticalAlign=bottom;" connectable="0" vertex="1" parent="68sEGDZY214vlDvR09lp-87">
          <mxGeometry x="1" relative="1" as="geometry" />
        </mxCell>
        <mxCell id="68sEGDZY214vlDvR09lp-90" value="" style="endArrow=none;html=1;edgeStyle=orthogonalEdgeStyle;exitX=0;exitY=0.5;exitDx=0;exitDy=0;" edge="1" parent="WIyWlLk6GJQsqaUBKTNV-1" source="68sEGDZY214vlDvR09lp-81" target="68sEGDZY214vlDvR09lp-51">
          <mxGeometry relative="1" as="geometry">
            <mxPoint x="350" y="650" as="sourcePoint" />
            <mxPoint x="510" y="650" as="targetPoint" />
          </mxGeometry>
        </mxCell>
        <mxCell id="68sEGDZY214vlDvR09lp-91" value="parent" style="edgeLabel;resizable=0;html=1;align=left;verticalAlign=bottom;" connectable="0" vertex="1" parent="68sEGDZY214vlDvR09lp-90">
          <mxGeometry x="-1" relative="1" as="geometry" />
        </mxCell>
        <mxCell id="68sEGDZY214vlDvR09lp-92" value="child" style="edgeLabel;resizable=0;html=1;align=right;verticalAlign=bottom;" connectable="0" vertex="1" parent="68sEGDZY214vlDvR09lp-90">
          <mxGeometry x="1" relative="1" as="geometry" />
        </mxCell>
      </root>
    </mxGraphModel>
  </diagram>
</mxfile>
